<?xml version="1.0" standalone="no"?>
<!DOCTYPE svg PUBLIC "-//W3C//DTD SVG 20010904//EN"
 "http://www.w3.org/TR/2001/REC-SVG-20010904/DTD/svg10.dtd">
<svg version="1.0" xmlns="http://www.w3.org/2000/svg"
 width="500.000000pt" height="500.000000pt" viewBox="0 0 500.000000 500.000000"
 preserveAspectRatio="xMidYMid meet">

<g transform="translate(0.000000,500.000000) scale(0.100000,-0.100000)"
fill="#000000" stroke="none">
<path d="M0 2500 l0 -2500 2500 0 2500 0 0 2500 0 2500 -2500 0 -2500 0 0
-2500z m2424 485 c53 -24 96 -47 96 -50 0 -6 -26 5 -133 54 -37 18 -73 29 -79
25 -7 -4 -8 -3 -4 4 10 17 14 16 120 -33z m-1124 -10 c41 -30 49 -32 25 -5
-10 11 -14 20 -8 20 16 0 104 -32 100 -36 -2 -3 -17 0 -32 6 -46 17 -38 6 30
-44 36 -26 65 -52 65 -57 0 -6 4 -8 9 -4 6 3 14 -3 20 -12 5 -10 12 -17 15
-15 6 3 42 -6 116 -27 33 -9 33 -9 -10 -4 -25 3 -54 9 -66 13 -11 5 -44 2 -75
-6 -30 -8 -61 -13 -69 -11 -8 2 5 7 30 11 25 5 49 10 53 13 5 3 -28 30 -72 60
-46 31 -78 60 -74 66 4 6 0 8 -9 4 -9 -3 -31 5 -51 18 -27 19 -51 25 -108 28
l-74 3 76 2 c66 2 79 -1 109 -23z m-215 5 c-16 -4 -41 -8 -55 -8 -23 -1 -23 0
-5 8 11 5 36 8 55 8 l35 0 -30 -8z m1195 -21 c-7 -11 -14 -18 -17 -15 -3 3 0
12 7 21 18 21 23 19 10 -6z m-1322 -5 c-27 -8 -48 -16 -48 -18 0 -2 63 -41
140 -87 77 -45 138 -84 136 -86 -2 -2 -69 35 -150 83 -80 48 -143 90 -140 93
10 10 68 29 89 30 11 0 -1 -7 -27 -15z m543 -30 c33 -15 58 -29 56 -31 -2 -2
-33 10 -68 26 -35 17 -60 30 -55 31 5 0 35 -12 67 -26z m-431 -114 c80 -45
152 -89 160 -97 12 -11 7 -19 -40 -60 -30 -26 -75 -67 -99 -90 -25 -24 -47
-42 -50 -41 -147 71 -431 221 -431 227 0 12 100 86 184 136 71 43 71 43 101
26 17 -10 95 -55 175 -101z m1174 95 c-4 -8 -11 -15 -16 -15 -6 0 -5 6 2 15 7
8 14 15 16 15 2 0 1 -7 -2 -15z m-649 -33 c-3 -3 -11 0 -18 7 -9 10 -8 11 6 5
10 -3 15 -9 12 -12z m82 -53 c17 -15 29 -31 25 -35 -4 -4 -2 -4 4 -1 7 4 17 0
24 -8 16 -19 27 -19 27 -1 0 8 -5 12 -12 10 -6 -3 -22 7 -35 22 -25 25 -24 25
40 -7 78 -39 83 -43 49 -34 -17 4 -30 2 -34 -6 -5 -7 -4 -10 2 -6 5 3 30 -15
54 -41 28 -30 31 -35 9 -15 -19 18 -37 31 -40 30 -3 -1 -30 13 -60 31 -30 17
-50 32 -45 32 6 0 -10 19 -35 42 -47 42 -29 33 27 -13z m553 5 c54 -36 51 -42
-4 -10 -24 14 -47 22 -51 18 -5 -4 -5 -1 -1 6 10 16 10 16 56 -14z m145 -62
c-4 -5 -115 57 -115 64 0 3 27 -9 60 -27 32 -18 57 -35 55 -37z m-985 19 c-8
-5 -26 -12 -40 -15 l-25 -7 25 15 c14 9 32 15 40 15 13 0 13 -1 0 -8z m-96
-36 l31 17 -25 -21 c-31 -26 -48 -26 -80 0 l-25 20 34 -17 c32 -15 36 -15 65
1z m571 5 c13 -6 15 -9 5 -9 -8 0 -22 4 -30 9 -18 12 -2 12 25 0z m196 -1
c-24 -9 -23 -11 49 -77 40 -37 84 -74 97 -83 13 -8 20 -19 17 -22 -4 -4 -13
-2 -21 4 -10 9 -13 8 -13 -3 0 -18 -52 -29 -107 -22 -48 6 -130 48 -179 91
l-39 35 40 -30 c80 -59 145 -86 208 -85 33 1 61 4 64 6 4 5 -37 45 -134 131
-24 21 -49 36 -56 33 -8 -3 -20 -1 -28 4 -10 6 -5 9 17 9 20 0 39 -9 54 -25
13 -14 28 -25 33 -25 6 0 0 11 -13 26 -21 21 -22 27 -10 34 8 5 22 9 30 9 8 0
4 -5 -9 -10z m-128 -16 c-7 -2 -21 -2 -30 0 -10 3 -4 5 12 5 17 0 24 -2 18 -5z
m-1302 -30 c27 -14 47 -28 45 -31 -3 -2 -26 8 -52 22 l-47 26 -22 -20 c-12
-11 -25 -20 -31 -20 -8 0 45 49 55 50 2 0 25 -12 52 -27z m173 -89 c59 -31
106 -58 104 -60 -4 -4 -218 105 -218 111 0 8 4 7 114 -51z m177 -89 l50 -26
-47 -59 c-26 -33 -54 -66 -62 -72 -9 -7 9 18 38 56 30 38 50 71 45 73 -18 6
-90 52 -82 53 4 0 30 -11 58 -25z"/>
<path d="M1410 2906 c0 -2 8 -10 18 -17 15 -13 16 -12 3 4 -13 16 -21 21 -21
13z"/>
<path d="M810 2879 c-30 -18 -83 -52 -118 -78 -58 -42 -61 -47 -45 -59 20 -15
294 -156 360 -185 l43 -19 82 77 c46 43 84 81 86 85 2 6 -338 210 -350 210 -2
0 -28 -14 -58 -31z"/>
<path d="M2110 2644 c25 -25 54 -50 65 -56 11 -6 -5 15 -35 46 -30 31 -59 56
-64 56 -6 0 10 -21 34 -46z"/>
</g>
</svg>
